<svg xmlns="http://www.w3.org/2000/svg" width="353" height="352" viewBox="0 0 353 352">
<g>
<path d="M 50.24 352.00 C74.89,351.99 79.50,351.80 81.54,349.42 C82.09,348.78 82.45,347.98 82.97,346.98 C83.68,345.62 87.18,341.82 90.74,338.55 C97.45,332.40 111.21,315.83 113.15,311.57 C114.38,308.87 113.49,303.58 111.96,304.52 C111.43,304.85 110.73,304.31 110.41,303.31 C110.10,302.32 109.20,300.31 108.42,298.85 C107.64,297.39 107.00,293.69 107.00,290.63 C107.00,285.82 107.43,284.59 110.14,281.50 C113.93,277.17 115.72,276.15 120.60,275.53 C125.17,274.94 126.67,276.07 128.03,281.11 C128.80,283.97 129.72,285.14 131.58,285.61 C135.01,286.47 136.63,284.79 146.21,270.54 C150.65,263.92 156.41,256.02 158.99,253.00 C161.58,249.98 165.82,244.44 168.42,240.71 L 173.14 233.92 L 171.05 229.61 C169.91,227.24 167.92,224.83 166.63,224.24 C164.99,223.49 163.92,221.75 163.10,218.48 C162.05,214.30 162.11,213.63 163.71,212.39 C165.41,211.07 165.41,210.93 163.75,209.64 C162.79,208.89 162.00,208.06 162.00,207.80 C162.00,207.14 174.10,207.00 176.30,207.64 C177.79,208.08 177.89,208.43 176.84,209.69 C175.80,210.95 175.91,211.46 177.48,212.61 C178.53,213.37 179.72,214.00 180.13,214.00 C180.54,214.00 180.64,215.69 180.36,217.75 L 179.84 221.50 L 181.90 219.00 C183.04,217.62 183.74,215.89 183.47,215.15 C183.20,214.39 185.63,211.14 188.96,207.80 C194.90,201.84 194.93,201.78 194.33,197.15 C194.00,194.59 193.27,191.93 192.72,191.23 C192.17,190.53 191.89,189.83 192.11,189.67 C195.12,187.54 198.18,186.18 201.25,185.61 C204.10,185.08 205.75,183.89 208.10,180.70 C213.00,174.03 231.54,143.76 239.76,129.00 C243.90,121.57 250.10,110.55 253.53,104.50 C260.90,91.52 263.00,87.45 263.00,86.13 C263.00,84.27 255.99,82.86 245.54,82.61 C239.76,82.48 234.77,82.10 234.44,81.77 C234.12,81.45 234.57,79.79 235.45,78.09 C238.79,71.63 232.71,76.41 225.97,85.54 C221.54,91.55 213.48,100.02 206.97,105.52 C205.04,107.16 201.64,110.07 199.43,112.00 C197.23,113.93 193.89,116.62 192.01,118.00 C190.14,119.38 187.23,121.64 185.55,123.03 C175.41,131.44 170.40,133.76 159.50,135.10 C149.29,136.36 79.58,138.27 72.25,137.50 C65.61,136.80 64.88,135.97 67.15,131.72 C67.79,130.53 68.35,128.44 68.40,127.06 C68.46,125.61 69.36,124.13 70.55,123.53 C74.53,121.53 89.05,105.29 88.39,103.57 C87.58,101.47 98.11,93.02 106.62,88.95 C111.09,86.81 118.74,83.90 123.62,82.46 C132.15,79.97 133.48,79.87 157.00,79.91 C170.48,79.94 187.35,80.16 194.50,80.40 C201.65,80.64 209.52,80.48 212.00,80.04 C214.48,79.61 219.88,78.68 224.00,77.99 C231.35,76.76 231.64,76.60 238.52,69.87 C242.39,66.09 245.95,63.00 246.45,63.00 C246.94,63.00 246.44,64.01 245.32,65.25 C242.47,68.41 241.32,70.54 243.03,69.48 C244.75,68.42 249.70,62.79 253.48,57.59 C257.58,51.96 258.99,50.98 261.13,52.31 C263.95,54.07 265.00,57.65 265.00,65.49 C265.00,69.55 265.39,73.12 265.86,73.41 C266.33,73.71 267.89,73.39 269.32,72.72 C271.31,71.79 273.96,67.38 280.50,54.11 C290.14,34.58 294.75,27.05 306.16,12.25 C310.50,6.61 313.93,1.98 313.78,1.96 C312.12,1.73 290.56,0.88 275.44,0.46 L 259.25 0.00 L 353.00 0.00 L 353.00 352.00 L 50.24 352.00 ZM 0.25 232.80 L 0.00 348.19 L 0.00 50.98 C0.00,84.33 0.35,102.00 1.00,102.00 C1.55,102.00 2.00,101.61 2.00,101.13 C2.00,99.25 13.36,89.14 19.10,85.91 C22.44,84.04 29.74,78.80 35.33,74.28 C40.93,69.76 48.58,63.91 52.33,61.28 C56.09,58.65 61.94,54.07 65.33,51.11 C68.73,48.14 76.90,41.64 83.50,36.67 C90.10,31.69 97.87,25.84 100.76,23.66 C106.56,19.29 107.01,17.97 101.84,20.47 L 98.50 22.09 L 101.50 19.55 C103.15,18.16 108.20,14.75 112.72,11.99 C122.53,5.99 126.80,2.47 125.67,1.34 C125.21,0.88 96.75,0.38 62.42,0.23 L 10.11 0.00 L 203.97 -0.00 C188.77,0.02 186.59,0.28 181.88,2.22 C173.01,5.88 135.00,25.03 135.00,25.84 C135.00,26.26 136.58,27.17 138.51,27.87 C142.77,29.41 145.41,33.88 144.49,38.03 C143.62,42.01 140.91,45.19 133.04,51.47 C126.64,56.57 125.95,56.87 119.89,57.14 C116.38,57.30 112.94,57.08 112.25,56.66 C111.48,56.18 111.00,53.61 111.00,49.94 C111.00,46.67 110.56,44.00 110.03,44.00 C109.50,44.00 109.32,43.33 109.64,42.50 C109.96,41.67 109.67,41.00 108.98,41.00 C108.02,41.00 108.02,40.68 109.00,39.50 C111.54,36.44 108.31,38.25 94.27,47.75 C75.27,60.61 72.33,62.35 67.00,63.88 C60.72,65.68 57.70,67.78 58.47,69.78 C59.15,71.54 58.88,71.80 47.50,80.39 C32.49,91.72 21.23,99.80 15.22,103.57 C11.77,105.73 7.04,108.87 4.72,110.55 L 0.50 113.60 ZM 196.00 273.58 C196.00,274.36 196.35,275.00 196.78,275.00 C198.54,275.00 207.97,264.16 210.32,259.44 C211.71,256.65 213.55,253.79 214.42,253.06 C215.29,252.34 216.00,251.32 216.00,250.79 C216.00,250.26 219.08,246.37 222.84,242.16 C226.60,237.95 231.39,231.80 233.48,228.50 C235.56,225.20 238.75,220.25 240.56,217.50 C244.41,211.66 254.00,192.28 254.00,190.36 C254.00,188.90 249.75,187.50 247.69,188.29 C246.97,188.56 242.60,194.80 237.98,202.15 C233.37,209.49 226.02,220.90 221.65,227.50 C217.29,234.10 212.46,242.30 210.92,245.72 C209.37,249.14 206.32,254.31 204.13,257.22 C200.17,262.46 196.00,270.86 196.00,273.58 ZM 256.34 0.00 L 254.97 2.55 C253.60,5.11 245.29,12.80 238.75,17.57 C236.96,18.87 234.46,20.69 233.20,21.62 C230.96,23.25 230.80,23.20 227.87,19.90 C225.87,17.65 225.08,17.18 225.54,18.50 C225.92,19.60 226.43,21.40 226.69,22.50 L 227.15 24.50 L 225.51 22.50 C224.17,20.87 223.92,18.61 224.18,10.25 L 224.50 0.00 L 256.34 0.00 ZM 106.73 246.00 C103.22,248.76 101.51,248.52 97.58,244.75 C94.60,241.88 94.26,241.05 94.72,237.66 C95.12,234.73 95.98,233.38 98.37,231.92 C104.02,228.47 113.87,230.12 117.36,235.11 C118.82,237.19 118.83,237.52 117.44,238.29 C116.59,238.77 115.48,240.25 114.97,241.58 C114.35,243.21 113.27,244.00 111.66,244.00 C110.35,244.00 108.13,244.90 106.73,246.00 ZM 162.67 312.33 C163.39,313.05 169.05,310.74 174.76,307.40 C179.38,304.69 181.42,301.07 182.55,293.54 C183.16,289.47 183.02,289.00 181.27,289.00 C179.63,289.00 171.48,296.78 166.19,303.41 C164.29,305.78 161.98,311.65 162.67,312.33 ZM 220.31 149.75 C217.65,151.72 213.30,151.27 211.62,148.86 C210.27,146.94 210.29,146.48 211.81,144.36 C212.81,142.95 214.22,142.16 215.27,142.41 C216.24,142.64 217.71,142.14 218.55,141.31 C219.68,140.18 220.39,140.08 221.40,140.91 C223.18,142.39 222.47,148.15 220.31,149.75 ZM 119.52 302.03 C120.73,303.99 131.00,292.83 131.00,289.55 C131.00,287.95 127.04,289.49 123.82,292.34 C120.11,295.61 118.21,299.91 119.52,302.03 ZM 31.29 271.35 C25.05,274.58 21.25,272.43 27.23,269.05 C29.16,267.96 30.38,267.86 32.14,268.65 L 34.49 269.70 ZM 206.00 269.97 C206.00,270.54 206.21,271.00 206.46,271.00 C207.50,271.00 215.00,258.98 215.00,257.32 C215.00,256.32 213.00,258.50 210.50,262.23 C208.02,265.92 206.00,269.40 206.00,269.97 ZM 136.24 337.75 C135.64,339.60 139.68,339.29 140.39,337.43 C140.84,336.26 140.44,335.94 138.82,336.18 C137.63,336.36 136.47,337.06 136.24,337.75 Z" fill="rgb(7,7,7)"/>
<path d="M 0.25 232.80 L 0.50 113.60 L 4.72 110.55 C7.04,108.87 11.77,105.73 15.22,103.57 C21.23,99.80 32.49,91.72 47.50,80.39 C58.88,71.80 59.15,71.54 58.47,69.78 C57.70,67.78 60.72,65.68 67.00,63.88 C72.33,62.35 75.27,60.61 94.27,47.75 C108.31,38.25 111.54,36.44 109.00,39.50 C108.02,40.68 108.02,41.00 108.98,41.00 C109.67,41.00 109.96,41.67 109.64,42.50 C109.32,43.33 109.50,44.00 110.03,44.00 C110.56,44.00 111.00,46.67 111.00,49.94 C111.00,53.61 111.48,56.18 112.25,56.66 C112.94,57.08 116.38,57.30 119.89,57.14 C125.95,56.87 126.64,56.57 133.04,51.47 C140.91,45.19 143.62,42.01 144.49,38.03 C145.41,33.88 142.77,29.41 138.51,27.87 C136.58,27.17 135.00,26.26 135.00,25.84 C135.00,25.03 173.01,5.88 181.88,2.22 C186.78,0.20 188.94,-0.00 205.88,-0.00 L 224.50 -0.00 L 224.18 10.25 C223.92,18.61 224.17,20.87 225.51,22.50 L 227.15 24.50 L 226.69 22.50 C226.43,21.40 225.92,19.60 225.54,18.50 C225.08,17.18 225.87,17.65 227.87,19.90 C230.80,23.20 230.96,23.25 233.20,21.62 C234.46,20.69 236.96,18.87 238.75,17.57 C245.29,12.80 253.60,5.11 254.97,2.55 L 256.38 -0.08 L 275.44 0.46 C290.56,0.88 312.12,1.73 313.78,1.96 C313.93,1.98 310.50,6.61 306.16,12.25 C294.75,27.05 290.14,34.58 280.50,54.11 C273.96,67.38 271.31,71.79 269.32,72.72 C267.89,73.39 266.33,73.71 265.86,73.41 C265.39,73.12 265.00,69.55 265.00,65.49 C265.00,57.65 263.95,54.07 261.13,52.31 C258.99,50.98 257.58,51.96 253.48,57.59 C249.70,62.79 244.75,68.42 243.03,69.48 C241.32,70.54 242.47,68.41 245.32,65.25 C246.44,64.01 246.94,63.00 246.45,63.00 C245.95,63.00 242.39,66.09 238.52,69.87 C231.64,76.60 231.35,76.76 224.00,77.99 C219.88,78.68 214.48,79.61 212.00,80.04 C209.52,80.48 201.65,80.64 194.50,80.40 C187.35,80.16 170.48,79.94 157.00,79.91 C133.48,79.87 132.15,79.97 123.62,82.46 C118.74,83.90 111.09,86.81 106.62,88.95 C98.11,93.02 87.58,101.47 88.39,103.57 C89.05,105.29 74.53,121.53 70.55,123.53 C69.36,124.13 68.46,125.61 68.40,127.06 C68.35,128.44 67.79,130.53 67.15,131.72 C64.88,135.97 65.61,136.80 72.25,137.50 C79.58,138.27 149.29,136.36 159.50,135.10 C170.40,133.76 175.41,131.44 185.55,123.03 C187.23,121.64 190.14,119.38 192.01,118.00 C193.89,116.62 197.23,113.93 199.43,112.00 C201.64,110.07 205.04,107.16 206.97,105.52 C213.48,100.02 221.54,91.55 225.97,85.54 C232.71,76.41 238.79,71.63 235.45,78.09 C234.57,79.79 234.12,81.45 234.44,81.77 C234.77,82.10 239.76,82.48 245.54,82.61 C255.99,82.86 263.00,84.27 263.00,86.13 C263.00,87.45 260.90,91.52 253.53,104.50 C250.10,110.55 243.90,121.57 239.76,129.00 C231.54,143.76 213.00,174.03 208.10,180.70 C205.75,183.89 204.10,185.08 201.25,185.61 C198.18,186.18 195.12,187.54 192.11,189.67 C191.89,189.83 192.17,190.53 192.72,191.23 C193.27,191.93 194.00,194.59 194.33,197.15 C194.93,201.78 194.90,201.84 188.96,207.80 C185.63,211.14 183.20,214.39 183.47,215.15 C183.74,215.89 183.04,217.62 181.90,219.00 L 179.84 221.50 L 180.36 217.75 C180.64,215.69 180.54,214.00 180.13,214.00 C179.72,214.00 178.53,213.37 177.48,212.61 C175.91,211.46 175.80,210.95 176.84,209.69 C177.89,208.43 177.79,208.08 176.30,207.64 C174.10,207.00 162.00,207.14 162.00,207.80 C162.00,208.06 162.79,208.89 163.75,209.64 C165.41,210.93 165.41,211.07 163.71,212.39 C162.11,213.63 162.05,214.30 163.10,218.48 C163.92,221.75 164.99,223.49 166.63,224.24 C167.92,224.83 169.91,227.24 171.05,229.61 L 173.14 233.92 L 168.42 240.71 C165.82,244.44 161.58,249.98 158.99,253.00 C156.41,256.02 150.65,263.92 146.21,270.54 C136.63,284.79 135.01,286.47 131.58,285.61 C129.72,285.14 128.80,283.97 128.03,281.11 C126.67,276.07 125.17,274.94 120.60,275.53 C115.72,276.15 113.93,277.17 110.14,281.50 C107.43,284.59 107.00,285.82 107.00,290.63 C107.00,293.69 107.64,297.39 108.42,298.85 C109.20,300.31 110.10,302.32 110.41,303.31 C110.73,304.31 111.43,304.85 111.96,304.52 C113.49,303.58 114.38,308.87 113.15,311.57 C111.21,315.83 97.45,332.40 90.74,338.55 C87.18,341.82 83.68,345.62 82.97,346.98 C80.28,352.17 81.76,352.00 39.57,352.00 L -0.01 352.00 L 0.25 232.80 ZM 31.29 271.35 L 34.49 269.70 L 32.14 268.65 C30.38,267.86 29.16,267.96 27.23,269.05 C21.25,272.43 25.05,274.58 31.29,271.35 ZM 106.73 246.00 C108.13,244.90 110.35,244.00 111.66,244.00 C113.27,244.00 114.35,243.21 114.97,241.58 C115.48,240.25 116.59,238.77 117.44,238.29 C118.83,237.52 118.82,237.19 117.36,235.11 C113.87,230.12 104.02,228.47 98.37,231.92 C95.98,233.38 95.12,234.73 94.72,237.66 C94.26,241.05 94.60,241.88 97.58,244.75 C101.51,248.52 103.22,248.76 106.73,246.00 ZM 220.31 149.75 C222.47,148.15 223.18,142.39 221.40,140.91 C220.39,140.08 219.68,140.18 218.55,141.31 C217.71,142.14 216.24,142.64 215.27,142.41 C214.22,142.16 212.81,142.95 211.81,144.36 C210.29,146.48 210.27,146.94 211.62,148.86 C213.30,151.27 217.65,151.72 220.31,149.75 ZM 136.24 337.75 C136.47,337.06 137.63,336.36 138.82,336.18 C140.44,335.94 140.84,336.26 140.39,337.43 C139.68,339.29 135.64,339.60 136.24,337.75 ZM 162.67 312.33 C161.98,311.65 164.29,305.78 166.19,303.41 C171.48,296.78 179.63,289.00 181.27,289.00 C183.02,289.00 183.16,289.47 182.55,293.54 C181.42,301.07 179.38,304.69 174.76,307.40 C169.05,310.74 163.39,313.05 162.67,312.33 ZM 119.52 302.03 C118.21,299.91 120.11,295.61 123.82,292.34 C127.04,289.49 131.00,287.95 131.00,289.55 C131.00,292.83 120.73,303.99 119.52,302.03 ZM 196.00 273.58 C196.00,270.86 200.17,262.46 204.13,257.22 C206.32,254.31 209.37,249.14 210.92,245.72 C212.46,242.30 217.29,234.10 221.65,227.50 C226.02,220.90 233.37,209.49 237.98,202.15 C242.60,194.80 246.97,188.56 247.69,188.29 C249.75,187.50 254.00,188.90 254.00,190.36 C254.00,192.28 244.41,211.66 240.56,217.50 C238.75,220.25 235.56,225.20 233.48,228.50 C231.39,231.80 226.60,237.95 222.84,242.16 C219.08,246.37 216.00,250.26 216.00,250.79 C216.00,251.32 215.29,252.34 214.42,253.06 C213.55,253.79 211.71,256.65 210.32,259.44 C207.97,264.16 198.54,275.00 196.78,275.00 C196.35,275.00 196.00,274.36 196.00,273.58 ZM 206.00 269.97 C206.00,269.40 208.02,265.92 210.50,262.23 C213.00,258.50 215.00,256.32 215.00,257.32 C215.00,258.98 207.50,271.00 206.46,271.00 C206.21,271.00 206.00,270.54 206.00,269.97 ZM -0.00 50.98 L -0.00 -0.04 L 62.42 0.23 C96.75,0.38 125.21,0.88 125.67,1.34 C126.80,2.47 122.53,5.99 112.72,11.99 C108.20,14.75 103.15,18.16 101.50,19.55 L 98.50 22.09 L 101.84 20.47 C107.01,17.97 106.56,19.29 100.76,23.66 C97.87,25.84 90.10,31.69 83.50,36.67 C76.90,41.64 68.73,48.14 65.33,51.11 C61.94,54.07 56.09,58.65 52.33,61.28 C48.58,63.91 40.93,69.76 35.33,74.28 C29.74,78.80 22.44,84.04 19.10,85.91 C13.36,89.14 2.00,99.25 2.00,101.13 C2.00,101.61 1.55,102.00 1.00,102.00 C0.35,102.00 -0.00,84.33 -0.00,50.98 Z" fill="rgb(222,222,222)"/>
</g>
</svg>